<svg height="472pt" viewBox="-24 0 472 472" width="472pt" xmlns="http://www.w3.org/2000/svg" xmlns:xlink="http://www.w3.org/1999/xlink"><linearGradient id="linear0" gradientUnits="userSpaceOnUse" x1="-16.408" x2="367.168" y1="422.752" y2="39.168"><stop offset="0" stop-color="#41dfd0"/><stop offset="1" stop-color="#ee83ef"/></linearGradient><path d="m82.320312 109.679688c-3.09375-3.15625-3.09375-8.203126 0-11.359376.378907-.34375.777344-.664062 1.191407-.960937.449219-.300781.9375-.542969 1.449219-.71875.453124-.230469.9375-.394531 1.4375-.480469 2.636718-.523437 5.359374.285156 7.28125 2.160156l.960937 1.199219c.300781.449219.539063.933594.71875 1.441407.234375.449218.390625.9375.472656 1.4375.09375.53125.152344 1.066406.167969 1.601562.023438 2.128906-.8125 4.175781-2.320312 5.679688-1.503907 1.507812-3.550782 2.34375-5.679688 2.320312-.535156-.011719-1.070312-.066406-1.601562-.160156-.5-.085938-.984376-.25-1.4375-.480469-.511719-.175781-1-.417969-1.449219-.71875zm59.359376 28.640624c-3.128907-3.105468-8.183594-3.09375-11.296876.03125-3.113281 3.121094-3.113281 8.175782 0 11.296876 3.113282 3.125 8.167969 3.136718 11.296876.03125.722656-.765626 1.292968-1.660157 1.679687-2.640626.234375-.449218.390625-.9375.472656-1.4375.097657-.53125.15625-1.066406.167969-1.601562-.011719-1.046875-.230469-2.078125-.640625-3.039062-.40625-.96875-.972656-1.863282-1.679687-2.640626zm-141.679688 277.679688c.0546875-27.804688 20.484375-51.367188 48-55.359375v-344.640625c0-3.234375 1.949219-6.152344 4.9375-7.390625s6.429688-.550781 8.71875 1.734375l10.34375 10.34375 10.34375-10.34375c3.125-3.121094 8.1875-3.121094 11.3125 0l10.34375 10.34375 10.34375-10.34375c3.125-3.121094 8.1875-3.121094 11.3125 0l10.34375 10.34375 10.34375-10.34375c3.125-3.121094 8.1875-3.121094 11.3125 0l10.34375 10.34375 10.34375-10.34375c3.125-3.121094 8.1875-3.121094 11.3125 0l10.34375 10.34375 10.34375-10.34375c3.125-3.121094 8.1875-3.121094 11.3125 0l10.34375 10.34375 10.34375-10.34375c3.125-3.121094 8.1875-3.121094 11.3125 0l11.359375 11.359375 18.542969-12.359375c2.457031-1.636719 5.613281-1.789062 8.214844-.398438 2.601562 1.390626 4.226562 4.105469 4.226562 7.054688v88h112c8.835938 0 16 7.164062 16 16v160c0 8.835938-7.164062 16-16 16h-112v104c-.042969 39.746094-32.253906 71.957031-72 72h-168c-30.914062-.035156-55.9648438-25.085938-56-56zm408-136v-80h-232v80zm-232-96h232v-32h-232zm232-64h-232v16h232zm-344-84.6875v324.6875h160c3.105469 0 5.929688 1.792969 7.25 4.605469 1.316406 2.808593.890625 6.128906-1.097656 8.515625-19.761719 23.71875-20.730469 57.882812-2.34375 82.6875 29.355468-2 52.160156-26.382813 52.191406-55.808594v-104h-104c-8.835938 0-16-7.164062-16-16v-160c0-8.835938 7.164062-16 16-16h104v-73.046875l-11.558594 7.703125c-3.175781 2.117188-7.402344 1.695312-10.097656-1l-10.34375-10.34375-10.34375 10.34375c-3.171875 3-8.140625 3-11.3125 0l-10.34375-10.34375-10.34375 10.34375c-3.171875 3-8.140625 3-11.3125 0l-10.34375-10.34375-10.34375 10.34375c-3.171875 3-8.140625 3-11.3125 0l-10.34375-10.34375-10.34375 10.34375c-3.171875 3-8.140625 3-11.3125 0l-10.34375-10.34375-10.34375 10.34375c-3.171875 3-8.140625 3-11.3125 0l-10.34375-10.34375-10.34375 10.34375c-3.171875 3-8.140625 3-11.3125 0zm-48 380.6875c.027344 22.082031 17.917969 39.972656 40 40h152.886719c-13.703125-24.90625-13.703125-55.09375 0-80h-152.886719c-22.082031.027344-39.972656 17.917969-40 40zm376-176c0 13.253906-10.746094 24-24 24-4.210938-.039062-8.332031-1.203125-11.945312-3.367188-3.644532 2.179688-7.808594 3.34375-12.054688 3.367188-13.253906 0-24-10.746094-24-24s10.746094-24 24-24c4.246094.023438 8.410156 1.1875 12.054688 3.367188 3.613281-2.164063 7.734374-3.328126 11.945312-3.367188 13.253906 0 24 10.746094 24 24zm-48 8c4.417969 0 8-3.582031 8-8s-3.582031-8-8-8-8 3.582031-8 8 3.582031 8 8 8zm32-8c0-4.417969-3.582031-8-8-8-.46875.058594-.929688.160156-1.375.304688 1.832031 4.964843 1.832031 10.425781 0 15.390624.445312.144532.90625.246094 1.375.304688 4.417969 0 8-3.582031 8-8zm-294.152344-90.878906c1.359375 1.632812 3.3125 2.660156 5.429688 2.851562 2.113281.191406 4.21875-.464844 5.851562-1.828125l48-40c3.390625-2.832031 3.847656-7.878906 1.015625-11.273437-2.832031-3.390625-7.878906-3.847656-11.273437-1.015625l-48 40c-3.390625 2.828125-3.847656 7.871093-1.023438 11.265625zm62.152344 34.253906h-64v16h64zm0 32h-64v16h64zm0 32.625h-64v16h64zm-48 32h-16v16h16zm48 16v-16h-32v16zm120 32h-184v16h184zm0-256h-104v16h104zm64 0h-16v16h16zm0-32h-16v16h16zm0-40h-16v24h16zm-16 312v16h16v-16zm32 0v16h16v-16zm80 0h-48v16h48zm0 0" fill="url(#linear0)"/></svg>