<?xml version="1.0"?>
<svg xmlns="http://www.w3.org/2000/svg" xmlns:xlink="http://www.w3.org/1999/xlink" viewBox="0 0 512 512" width="512" height="512"><defs><linearGradient id="linear-gradient" x1="88.206" y1="491.519" x2="429.672" y2="150.054" gradientUnits="userSpaceOnUse"><stop offset="0" stop-color="#41dfd0"/><stop offset="1" stop-color="#ee83ef"/></linearGradient></defs><g id="gradient"><path d="M426.224,213.089a47.032,47.032,0,1,0-66.513-66.513L340,166.287l-19.711-19.711a47.032,47.032,0,0,0-66.514,66.513L272.686,232H80a8,8,0,0,0-8,8v32a8,8,0,0,0,8,8V480a8,8,0,0,0,8,8H456a8,8,0,0,0,8-8V280a8,8,0,0,0,8-8V240a8,8,0,0,0-8-8H407.313ZM144,472H96V366.5l48,.6Zm0-120.9-48-.6V280h48ZM208,472H160V367.3l48,.6Zm0-120.1-48-.6V280h48Zm0-87.9H88V248H208Zm57.089-62.225a31.032,31.032,0,0,1,43.886-43.886l25.368,25.368a8,8,0,0,0,11.314,0l25.368-25.368a31.032,31.032,0,1,1,43.885,43.886L384.686,232H295.314ZM360,472H224V368H355.01A30.641,30.641,0,0,1,328,384a8,8,0,0,0,0,16,46.587,46.587,0,0,0,32-12.6Zm0-120H340a20,20,0,1,1,20-20Zm0-49.917A35.981,35.981,0,0,0,310.083,352H224V280H360ZM448,472H376V387.4A46.587,46.587,0,0,0,408,400a8,8,0,0,0,0-16,30.641,30.641,0,0,1-27.01-16H448ZM376,352V332a20,20,0,1,1,20,20Zm72,0H425.917A35.981,35.981,0,0,0,376,302.083V280h72Zm8-104v16H224V248ZM104,144.51a30.711,30.711,0,0,0,9.053,21.857l47.29,47.29a8,8,0,0,0,11.314,0l47.29-47.29h0a30.911,30.911,0,0,0-43.715-43.714L166,131.886l-9.233-9.233A30.91,30.91,0,0,0,104,144.51Zm56.343,4.347a8,8,0,0,0,11.314,0l14.889-14.89a14.911,14.911,0,0,1,21.087,21.087L166,196.687l-41.633-41.633a14.91,14.91,0,1,1,21.086-21.087Zm80.683-124.8L234,31.086l-7.026-7.026a27.516,27.516,0,1,0-38.915,38.913l40.284,40.284a8,8,0,0,0,11.314,0l40.284-40.284h0A27.516,27.516,0,1,0,241.026,24.06ZM272,43.516a11.445,11.445,0,0,1-3.373,8.144h0L234,86.287,199.373,51.66a11.516,11.516,0,1,1,16.286-16.287l12.684,12.684a8,8,0,0,0,11.314,0l12.684-12.684A11.516,11.516,0,0,1,272,43.516Z" style="fill:url(#linear-gradient)"/></g></svg>
