<svg height="512" viewBox="0 0 512 512" width="512" xmlns="http://www.w3.org/2000/svg" xmlns:xlink="http://www.w3.org/1999/xlink"><linearGradient id="linear-gradient" gradientUnits="userSpaceOnUse" x1="121.527" x2="415.682" y1="420.84" y2="126.686"><stop offset="0" stop-color="#41dfd0"/><stop offset="1" stop-color="#ee83ef"/></linearGradient><g id="gradient"><path d="m312 365.479v-53.479a8 8 0 0 0 8-8v-38.111l45.427-90.854a42.126 42.126 0 0 0 -4.77-45.02l-39.473-49.341a45.811 45.811 0 0 0 5.445-35.169 38.952 38.952 0 0 0 -68.951-13.924l-1.3 1.739-1.305-1.739a38.952 38.952 0 0 0 -68.951 13.924 45.8 45.8 0 0 0 4.838 34.121l-42.681 73.167a42.01 42.01 0 0 0 2.313 45.866l49.408 67.941v37.4a8 8 0 0 0 7.165 7.956l-7.125 71.244c-.026.265-.04.53-.04.8v70.111l-7.155 14.311a7.994 7.994 0 0 0 -.845 3.578v16a8 8 0 0 0 8 8h48.541a8 8 0 0 0 8-8.135l-.541-94.881 2.516-10.063 14.329 28.657a7.944 7.944 0 0 0 1.081 1.628l46.074 53.753v13.041a8 8 0 0 0 2.3 5.608l11.669 11.871a8 8 0 0 0 9.283 1.547l36.261-18.13a8 8 0 0 0 3.224-11.366zm-110.36-316.093a22.953 22.953 0 0 1 40.63-8.205l7.7 10.273a8 8 0 0 0 12.8 0l7.7-10.272a22.952 22.952 0 0 1 40.629 8.205 29.832 29.832 0 0 1 -8.791 29.251l-45.942 42.114-45.935-42.115a29.832 29.832 0 0 1 -8.791-29.251zm26.205 150.614-26.245-32.807 27.587-49.658 12.477 11.437a32.931 32.931 0 0 0 -5.447 6.281l-16.149 30.723a17.979 17.979 0 0 0 3.371 20.778l8.561 8.559v4.687zm44.332-60.964a16.9 16.9 0 0 1 6.389 21.943l-1.295 2.592-26.441-21.152a16.718 16.718 0 0 1 3.546-3.074 7.959 7.959 0 0 0 7.4-1.844l.912-.836a16.756 16.756 0 0 1 9.489 2.371zm-26.52 47.307-10.9-10.9a2 2 0 0 1 -.375-2.308l8.35-16.7 27.223 21.778-5.107 10.215a7.994 7.994 0 0 0 -.848 3.572v8h-16v-8a8 8 0 0 0 -2.343-5.657zm34.343 7.546 12.877-25.754a32.97 32.97 0 0 0 -12.469-42.819 33.359 33.359 0 0 0 -3.4-1.773l10.028-9.192 23.646 37.833-27.325 47.816h-3.357zm-116.473-4.64a26.007 26.007 0 0 1 -1.431-28.394l39.841-68.3 15.123 13.863-32.053 57.7a8 8 0 0 0 .746 8.883l32 40a8 8 0 0 0 6.247 2.999h64a8 8 0 0 0 6.946-4.031l32-56a8 8 0 0 0 -.162-8.209l-27.753-44.4 11.427-10.48 37.7 47.13a26.077 26.077 0 0 1 2.953 27.87l-46.271 92.542a7.994 7.994 0 0 0 -.84 3.578v32h-88v-32a8 8 0 0 0 -1.53-4.7zm44.473 290.751v-6.111l4.944-9.889h27.19l.27 16zm55.155-123.578a8 8 0 0 0 -14.916 1.638l-8 32a7.977 7.977 0 0 0 -.239 1.94v56h-24v-63.6l7.24-72.4h72.76v56a8 8 0 0 0 1.446 4.588l50.683 72.4-18.12 9.06-43.294-50.51zm78.145 125.691-5.3-5.386v-7.783l21.042-10.521 7.476 12.079z" fill="url(#linear-gradient)"/></g></svg>