<svg id="Layer_4_copy" height="512" viewBox="0 0 64 64" width="512" xmlns="http://www.w3.org/2000/svg" xmlns:xlink="http://www.w3.org/1999/xlink" data-name="Layer 4 copy"><linearGradient id="linear-gradient" gradientUnits="userSpaceOnUse" x1="72" x2="9.45" y1="9" y2="71.55"><stop offset="0" stop-color="#f7941e"/><stop offset="1" stop-color="#ee2a7b"/></linearGradient><linearGradient id="linear-gradient-2" x1="44.5" x2="-18.05" xlink:href="#linear-gradient" y1="-18.5" y2="44.05"/><linearGradient id="linear-gradient-3" x1="79" x2="16.45" xlink:href="#linear-gradient" y1="16" y2="78.55"/><linearGradient id="linear-gradient-4" x1="74" x2="11.45" xlink:href="#linear-gradient" y1="11" y2="73.55"/><linearGradient id="linear-gradient-5" x1="53" x2="-9.55" xlink:href="#linear-gradient" y1="-10" y2="52.55"/><linearGradient id="linear-gradient-6" x1="63" x2=".45" xlink:href="#linear-gradient" y1="0" y2="62.55"/><linearGradient id="linear-gradient-7" x1="66.5" x2="3.95" xlink:href="#linear-gradient" y1="3.5" y2="66.05"/><linearGradient id="linear-gradient-8" x1="62" x2="-.55" xlink:href="#linear-gradient" y1="-1" y2="61.55"/><linearGradient id="linear-gradient-9" x1="65" x2="2.45" xlink:href="#linear-gradient" y1="2" y2="64.55"/><linearGradient id="linear-gradient-10" x1="52" x2="-10.55" xlink:href="#linear-gradient" y1="-11" y2="51.55"/><linearGradient id="linear-gradient-11" x1="57" x2="-5.55" xlink:href="#linear-gradient" y1="-6" y2="56.55"/><linearGradient id="linear-gradient-12" x1="51" x2="-11.55" xlink:href="#linear-gradient" y1="-12" y2="50.55"/><linearGradient id="linear-gradient-13" x1="75" x2="12.45" xlink:href="#linear-gradient" y1="12" y2="74.55"/><linearGradient id="linear-gradient-14" x1="81" x2="18.45" xlink:href="#linear-gradient" y1="18" y2="80.55"/><linearGradient id="linear-gradient-15" x1="42.5" x2="-20.05" xlink:href="#linear-gradient" y1="-20.5" y2="42.05"/><linearGradient id="linear-gradient-16" x1="39.75" x2="-22.8" xlink:href="#linear-gradient" y1="-23.25" y2="39.3"/><linearGradient id="linear-gradient-17" x1="54.75" x2="-7.8" xlink:href="#linear-gradient" y1="-8.25" y2="54.3"/><linearGradient id="linear-gradient-18" x1="52.5" x2="-10.05" xlink:href="#linear-gradient" y1="-10.5" y2="52.05"/><linearGradient id="linear-gradient-19" x1="50.5" x2="-12.05" xlink:href="#linear-gradient" y1="-12.5" y2="50.05"/><linearGradient id="linear-gradient-20" x1="48.5" x2="-14.05" xlink:href="#linear-gradient" y1="-14.5" y2="48.05"/><linearGradient id="linear-gradient-21" x1="58" x2="-4.55" xlink:href="#linear-gradient" y1="-5" y2="57.55"/><linearGradient id="linear-gradient-22" x1="59.5" x2="-3.05" xlink:href="#linear-gradient" y1="-3.5" y2="59.05"/><linearGradient id="linear-gradient-23" x1="61" x2="-1.55" xlink:href="#linear-gradient" y1="-2" y2="60.55"/><linearGradient id="linear-gradient-24" x1="62.5" x2="-.05" xlink:href="#linear-gradient" y1="-.5" y2="62.05"/><path d="m53.59 28.83 1.41-1.42 1.41 1.42 1.42-1.42-1.42-1.41 1.42-1.41-1.42-1.42-1.41 1.42-1.41-1.42-1.42 1.42 1.42 1.41-1.42 1.41z" fill="url(#linear-gradient)"/><path d="m5.59 21.83 1.41-1.42 1.41 1.42 1.42-1.42-1.42-1.41 1.42-1.41-1.42-1.42-1.41 1.42-1.41-1.42-1.42 1.42 1.42 1.41-1.42 1.41z" fill="url(#linear-gradient-2)"/><path d="m63.54 62.16-6.19-4a1 1 0 0 0 -1.08 0l-5.65 3.65-5.62-3.65a1 1 0 0 0 -1.08 0l-5.66 3.65-5.66-3.65a1 1 0 0 0 -1.08 0l-5.66 3.65-5.66-3.65a1 1 0 0 0 -1.08 0l-5.66 3.65-5.71-3.65a1 1 0 0 0 -1.08 0l-6.21 4a1 1 0 0 0 1.08 1.68l5.67-3.65 5.67 3.65a1 1 0 0 0 1.08 0l5.66-3.65 5.66 3.65a1 1 0 0 0 1.08 0l5.64-3.65 5.66 3.65a1 1 0 0 0 1.08 0l5.66-3.65 5.66 3.65a1 1 0 0 0 1.08 0l5.65-3.65 5.65 3.65a1 1 0 0 0 1.09-1.68z" fill="url(#linear-gradient-3)"/><path d="m63.54 52.16-6.19-4a1 1 0 0 0 -1.08 0l-1.09.71-17.84-14a8.64 8.64 0 0 0 -10.67 0l-17.83 14-1.09-.7a1 1 0 0 0 -1.08 0l-6.21 4a1 1 0 0 0 1.08 1.68l5.67-3.65 5.67 3.65a1 1 0 0 0 1.08 0l5.66-3.65 5.66 3.65a1 1 0 0 0 1.08 0l5.64-3.66 5.66 3.65a1 1 0 0 0 1.08 0l5.66-3.65 5.66 3.65a1 1 0 0 0 1.08 0l5.65-3.65 5.65 3.65a1 1 0 0 0 1.09-1.68zm-12.93-.35-5.61-3.65a1 1 0 0 0 -1.08 0l-5.66 3.65-5.66-3.65a1 1 0 0 0 -1.08 0l-5.66 3.65-5.66-3.65a1 1 0 0 0 -1.08 0l-5.66 3.65-2.85-1.81 17.29-13.52a6.64 6.64 0 0 1 8.2 0l17.29 13.52z" fill="url(#linear-gradient-4)"/><path d="m19 21a1 1 0 0 0 0 2h4a1 1 0 0 0 0-2z" fill="url(#linear-gradient-5)"/><path d="m37 25h4a1 1 0 0 0 0-2h-4a1 1 0 0 0 0 2z" fill="url(#linear-gradient-6)"/><path d="m37 32h4a1 1 0 0 0 0-2h-4a1 1 0 0 0 0 2z" fill="url(#linear-gradient-7)"/><path d="m28 30a1 1 0 0 0 0 2h4a1 1 0 0 0 0-2z" fill="url(#linear-gradient-8)"/><path d="m50 20a1 1 0 0 0 0-2h-4a1 1 0 0 0 0 2z" fill="url(#linear-gradient-9)"/><path d="m11 27a1 1 0 0 0 0 2h4a1 1 0 0 0 0-2z" fill="url(#linear-gradient-10)"/><path d="m11 34v2h-4a1 1 0 0 0 0 2h5a1 1 0 0 0 1-1v-2h3v2a1 1 0 0 0 1 1h4a1 1 0 0 0 0-2h-3v-2a1 1 0 0 0 -1-1h-5a1 1 0 0 0 -1 1z" fill="url(#linear-gradient-11)"/><path d="m1 38h2a1 1 0 0 0 0-2h-2a1 1 0 0 0 0 2z" fill="url(#linear-gradient-12)"/><path d="m52 38h5a1 1 0 0 0 0-2h-4v-2a1 1 0 0 0 -1-1h-5a1 1 0 0 0 -1 1v2h-3a1 1 0 0 0 0 2h4a1 1 0 0 0 1-1v-2h3v2a1 1 0 0 0 1 1z" fill="url(#linear-gradient-13)"/><path d="m60 37a1 1 0 0 0 1 1h2a1 1 0 0 0 0-2h-2a1 1 0 0 0 -1 1z" fill="url(#linear-gradient-14)"/><path d="m8 9h8v2h-8z" fill="url(#linear-gradient-15)"/><path d="m3 6h13v2h-13z" fill="url(#linear-gradient-16)"/><path d="m18 13h16.23l-2.84 2.21 1.23 1.58 4.87-3.79h24.51a1 1 0 0 0 .65-1.76l-7-6a1 1 0 0 0 -.65-.24h-14.8l-6.81-2.92-.79 1.84 2.53 1.08h-11.72l-4.7-4.71a1 1 0 0 0 -1.71.71v11a1 1 0 0 0 1 1zm1-9.59 3.29 3.29a1 1 0 0 0 .71.3h31.63l4.67 4h-19.24l1.56-1.21-1.23-1.58-3.59 2.79h-17.8z" fill="url(#linear-gradient-17)"/><path d="m32 8h2v2h-2z" fill="url(#linear-gradient-18)"/><path d="m28 8h2v2h-2z" fill="url(#linear-gradient-19)"/><path d="m24 8h2v2h-2z" fill="url(#linear-gradient-20)"/><path d="m43 8h2v2h-2z" fill="url(#linear-gradient-21)"/><path d="m46 8h2v2h-2z" fill="url(#linear-gradient-22)"/><path d="m49 8h2v2h-2z" fill="url(#linear-gradient-23)"/><path d="m52 8h2v2h-2z" fill="url(#linear-gradient-24)"/></svg>