<svg id="Layer_2" height="512" viewBox="0 0 512 512" width="512" xmlns="http://www.w3.org/2000/svg" xmlns:xlink="http://www.w3.org/1999/xlink" data-name="Layer 2"><linearGradient id="linear-gradient" gradientUnits="userSpaceOnUse" x1="483.141" x2="-23.663" y1="-22.122" y2="484.682"><stop offset="0" stop-color="#f7941e"/><stop offset="1" stop-color="#ee2a7b"/></linearGradient><linearGradient id="linear-gradient-2" x1="549.508" x2="42.704" xlink:href="#linear-gradient" y1="44.245" y2="551.049"/><linearGradient id="linear-gradient-3" x1="448.632" x2="-58.172" xlink:href="#linear-gradient" y1="-56.632" y2="450.172"/><linearGradient id="linear-gradient-4" x1="480.632" x2="-26.172" xlink:href="#linear-gradient" y1="-24.632" y2="482.172"/><linearGradient id="linear-gradient-5" x1="512.632" x2="5.828" xlink:href="#linear-gradient" y1="7.368" y2="514.172"/><linearGradient id="linear-gradient-6" x1="464.632" x2="-42.172" xlink:href="#linear-gradient" y1="-40.632" y2="466.172"/><linearGradient id="linear-gradient-7" x1="544.632" x2="37.828" xlink:href="#linear-gradient" y1="39.369" y2="546.173"/><linearGradient id="linear-gradient-8" x1="432.632" x2="-74.172" xlink:href="#linear-gradient" y1="-72.632" y2="434.172"/><linearGradient id="linear-gradient-9" x1="608.632" x2="101.828" xlink:href="#linear-gradient" y1="103.368" y2="610.172"/><path d="m467.429 0h-150.858c-26.242 0-44.571 16.449-44.571 40v56c0 24.673 15.327 40 40 40h55.062l-7.013 63.117a8 8 0 0 0 14.363 5.667l51.315-68.784h46.273c24.673 0 40-15.327 40-40v-56c0-23.551-18.329-40-44.571-40zm28.571 96c0 15.7-8.3 24-24 24h-50.286a8 8 0 0 0 -6.412 3.216l-36.102 48.384 4.747-42.719a8 8 0 0 0 -7.947-8.881h-64c-15.7 0-24-8.3-24-24v-56c0-16.579 14.35-24 28.571-24h150.858c14.221 0 28.571 7.421 28.571 24z" fill="url(#linear-gradient)"/><path d="m494 456h-69a17.022 17.022 0 0 0 -16.971 16h-32.058a17.015 17.015 0 0 0 -8.871-13.93l-47.109-274.806c-.365-14.164-11.269-23.264-27.991-23.264h-264c-17.009 0-28 9.42-28 24v.658l48 290v19.342a18.02 18.02 0 0 0 18 18h428a18.02 18.02 0 0 0 18-18v-20a18.02 18.02 0 0 0 -18-18zm-428 0a17.918 17.918 0 0 0 -4.761.66l-2.758-16.66h289.288l2.743 16zm279.026-32h-289.193l-35.752-216h287.919zm-317.026-248h264c7.962 0 12 2.691 12 8v.681l1.255 7.319h-287.822l-1.417-8.563c.284-4.937 4.308-7.437 11.984-7.437zm36 318v-20a2 2 0 0 1 2-2h198v24h-198a2 2 0 0 1 -2-2zm432 0a2 2 0 0 1 -2 2h-214v-24h79a1 1 0 0 1 1 1 15.017 15.017 0 0 0 15 15h34a15.017 15.017 0 0 0 15-15 1 1 0 0 1 1-1h69a2 2 0 0 1 2 2z" fill="url(#linear-gradient-2)"/><path d="m328 40a24 24 0 1 0 24 24 24.027 24.027 0 0 0 -24-24zm0 32a8 8 0 1 1 8-8 8.009 8.009 0 0 1 -8 8z" fill="url(#linear-gradient-3)"/><path d="m392 40a24 24 0 1 0 24 24 24.027 24.027 0 0 0 -24-24zm0 32a8 8 0 1 1 8-8 8.009 8.009 0 0 1 -8 8z" fill="url(#linear-gradient-4)"/><path d="m456 40a24 24 0 1 0 24 24 24.027 24.027 0 0 0 -24-24zm0 32a8 8 0 1 1 8-8 8.009 8.009 0 0 1 -8 8z" fill="url(#linear-gradient-5)"/><path d="m240 288a8 8 0 0 0 7.891-9.315l-8-48a8 8 0 0 0 -7.891-6.685h-136a8 8 0 0 0 -7.951 8.883l8 72a8 8 0 0 0 13.608 4.773l21.656-21.656zm-117.657-13.657-12.23 12.23-5.175-46.573h120.285l5.333 32h-102.556a8 8 0 0 0 -5.657 2.343z" fill="url(#linear-gradient-6)"/><path d="m279.81 334.265a8 8 0 0 0 -7.81-6.265h-136a8 8 0 0 0 -7.589 10.53l16 48a8 8 0 0 0 7.589 5.47h108.687l21.657 21.657a8 8 0 0 0 13.466-7.392zm-10.153 44.079a8 8 0 0 0 -5.657-2.344h-106.234l-10.666-32h118.483l8.648 38.917z" fill="url(#linear-gradient-7)"/><path d="m56 288h16v16h-16z" fill="url(#linear-gradient-8)"/><path d="m304 392h16v16h-16z" fill="url(#linear-gradient-9)"/></svg>