<svg id="Capa_1" enable-background="new 0 0 512 512" height="512" viewBox="0 0 512 512" width="512" xmlns="http://www.w3.org/2000/svg"><g><g><g><g fill="#8f8b81"><path d="m404.883 36.178v-16.178c0-11.046-8.954-20-20-20h-257.766c-11.046 0-20 8.954-20 20v16.178z"/><path d="m107.117 476.355v15.645c0 11.046 8.954 20 20 20h257.767c11.046 0 20-8.954 20-20v-15.645z"/></g><g fill="#706c64"><path d="m404.88 36.178v-16.178c0-11.05-8.95-20-20-20h-36.94c4.953 11.813 9.418 23.881 13.372 36.178z"/><path d="m268.005 476.355c-11.187 12.526-23.054 24.431-35.555 35.645h152.43c11.05 0 20-8.95 20-20v-15.645z"/></g><path d="m107.12 30.58h297.76v450.84h-297.76z" fill="#f1eee0"/><path d="m404.88 30.58v146.14c-6.92-.75-13.36-3.14-18.93-6.75-6.83 4.43-14.96 7.01-23.69 7.01h-39.25c-8.73 0-16.86-2.58-23.69-7.01-6.83 4.43-14.96 7.01-23.69 7.01h-39.26c-8.73 0-16.86-2.58-23.69-7.01-6.83 4.43-14.96 7.01-23.69 7.01h-39.25c-8.73 0-16.86-2.58-23.69-7.01-5.57 3.61-12.01 6-18.93 6.75v-146.14z" fill="#e8e4d8"/><path d="m404.88 30.58v450.84h-141.47c74.23-80.63 119.55-188.28 119.55-306.52 0-50.46-8.25-98.99-23.49-144.32z" fill="#e8e4d8"/><g><path d="m124.919 443.14c-9.832 0-17.803-7.971-17.803-17.803v-176.296c0-9.832 7.971-17.803 17.803-17.803 9.832 0 17.803 7.971 17.803 17.803v176.296c0 9.832-7.97 17.803-17.803 17.803z" fill="#f9f8f2"/><path d="m142.722 350.069v-72.676c0-9.832-7.971-17.803-17.803-17.803-9.832 0-17.803 7.971-17.803 17.803v72.676c0 9.832 7.971 17.803 17.803 17.803 9.833 0 17.803-7.971 17.803-17.803z" fill="#fff"/></g></g><g><g><path d="m126.046 83.243h-86.636l67.71-52.663h59.552z" fill="#ffaf40"/><path d="m212.682 83.243h-86.636l40.626-52.663h59.552z" fill="#e01152"/><path d="m299.318 83.243h-86.636l13.542-52.663h59.552z" fill="#ffaf40"/><path d="m385.954 83.243h-86.636l-13.542-52.663h59.552z" fill="#e01152"/><path d="m472.59 83.243h-86.636l-40.626-52.663h59.552z" fill="#ffaf40"/></g><g><path d="m39.41 83.243v47.765c0 11.046 8.954 20 20 20h46.636c11.046 0 20-8.954 20-20v-47.765z" fill="#ffc751"/><path d="m126.046 83.243v47.765c0 11.046 8.954 20 20 20h46.636c11.046 0 20-8.954 20-20v-47.765z" fill="#fe255f"/><path d="m212.682 83.243v47.765c0 11.046 8.954 20 20 20h46.636c11.046 0 20-8.954 20-20v-47.765z" fill="#ffc751"/><path d="m299.318 83.243v47.765c0 11.046 8.954 20 20 20h46.636c11.046 0 20-8.954 20-20v-47.765z" fill="#fe255f"/><path d="m385.954 83.243v47.765c0 11.046 8.954 20 20 20h46.636c11.046 0 20-8.954 20-20v-47.765z" fill="#ffc751"/></g><path d="m75.65 102.25v-19.006h-36.24v19.006c0 9.615 7.795 17.41 17.41 17.41h1.42c9.615 0 17.41-7.795 17.41-17.41z" fill="#ffe059"/><path d="m160.87 102.25v-19.006h-34.82v19.006c0 9.615 7.795 17.41 17.41 17.41 9.615 0 17.41-7.795 17.41-17.41z" fill="#fc709b"/><path d="m247.51 102.25v-19.006h-34.83v19.006c0 9.615 7.795 17.41 17.41 17.41h.01c9.615 0 17.41-7.795 17.41-17.41z" fill="#ffe059"/><path d="m334.14 102.25v-19.006h-34.82v19.006c0 9.615 7.795 17.41 17.41 17.41 9.615 0 17.41-7.795 17.41-17.41z" fill="#fc709b"/><g><path d="m91.099 43.041-51.689 40.203h36.24l29.108-22.64c8.361-6.503 3.762-19.906-6.83-19.906-2.473 0-4.877.824-6.829 2.343z" fill="#ffc751"/><path d="m154.727 46.065-28.677 37.179h34.82l15.69-20.337c6.993-9.064.532-22.209-10.916-22.209-4.275 0-8.307 1.982-10.917 5.367z" fill="#fe255f"/><path d="m220.362 53.364-7.682 29.879h34.83l5.522-21.479c2.744-10.672-5.316-21.066-16.335-21.066-7.697 0-14.418 5.211-16.335 12.666z" fill="#ffc751"/><path d="m293.796 61.758 5.524 21.486h34.82l-7.683-29.883c-1.916-7.453-8.635-12.663-16.33-12.663-11.017 0-19.074 10.391-16.331 21.06z" fill="#fe255f"/><path d="m370.263 62.905 15.687 20.339h34.83l-28.685-37.18c-2.61-3.384-6.642-5.365-10.916-5.365-11.447-.001-17.908 13.142-10.916 22.206z" fill="#ffc751"/></g><path d="m420.78 102.25v-19.006h-34.83v19.006c0 9.615 7.795 17.41 17.41 17.41h.01c9.615 0 17.41-7.795 17.41-17.41z" fill="#ffe059"/></g></g><g><path d="m320.837 189.42h-32.037c-3.681 0-6.881 2.355-8.175 5.801-3.74 9.959-13.355 17.047-24.623 17.047s-20.883-7.088-24.622-17.047c-1.294-3.446-4.494-5.801-8.175-5.801h-32.045c-4.914 0-8.897 3.983-8.897 8.897v26.033c0 4.914 3.983 8.897 8.897 8.897h18.269v64.135c0 4.914 3.983 8.897 8.897 8.897h75.352c4.914 0 8.897-3.983 8.897-8.897v-64.135h18.261c4.914 0 8.897-3.983 8.897-8.897v-26.033c.001-4.914-3.983-8.897-8.896-8.897z" fill="#0d8ba0"/><path d="m329.738 198.314v26.04c0 4.91-3.99 8.89-8.9 8.89h-18.26v64.14c0 4.91-3.99 8.9-8.9 8.9h-75.35c-4.92 0-8.9-3.99-8.9-8.9v-6.06c47.86-6.38 84.77-47.36 84.77-96.96 0-1.66-.04-3.31-.13-4.94h26.77c4.91 0 8.9 3.98 8.9 8.89z" fill="#02718c"/><path d="m222.165 270.245c-7.035 0-12.738-5.703-12.738-12.738v-21.557c0-7.035 5.703-12.738 12.738-12.738 7.035 0 12.738 5.703 12.738 12.738v21.558c0 7.035-5.703 12.737-12.738 12.737z" fill="#12adb5"/><path d="m302.578 277.434v19.95c0 4.91-3.99 8.9-8.9 8.9h-41.76c20.22-3.309 38.02-13.84 50.66-28.85z" fill="#015382"/></g><g><g fill="#27b2ff"><path d="m347.808 267.07v20.729c0 4.299 5.067 6.594 8.298 3.758l11.81-10.365c2.269-1.991 2.269-5.525 0-7.516l-11.81-10.365c-3.231-2.835-8.298-.54-8.298 3.759z"/><path d="m164.92 267.07v20.729c0 4.299-5.067 6.594-8.298 3.758l-11.81-10.365c-2.269-1.991-2.269-5.525 0-7.516l11.81-10.365c3.232-2.835 8.298-.54 8.298 3.759z"/></g></g><g><g><g><path d="m246.364 398.695h-68.329c-5.523 0-10-4.477-10-10v-32.092c0-5.523 4.477-10 10-10h68.329c5.523 0 10 4.477 10 10v32.092c0 5.523-4.477 10-10 10z" fill="#fe255f"/><path d="m256.362 356.604v32.09c0 5.52-4.48 10-10 10h-45.68c22.98-6.69 40.03-27.3 41.41-52.09h4.27c5.52 0 10 4.48 10 10z" fill="#e01152"/><path d="m217.284 359.281c0-6.904-5.596-12.5-12.5-12.5h-11.315c-6.904 0-12.5 5.596-12.5 12.5 0 6.904 5.596 12.5 12.5 12.5h11.315c6.903 0 12.5-5.597 12.5-12.5z" fill="#fc709b"/></g></g><g><g><path d="m333.964 398.695h-68.329c-5.523 0-10-4.477-10-10v-32.092c0-5.523 4.477-10 10-10h68.329c5.523 0 10 4.477 10 10v32.092c0 5.523-4.477 10-10 10z" fill="#29e088"/><path d="m343.962 356.604v32.09c0 5.52-4.48 10-10 10h-45.68c22.98-6.69 40.03-27.3 41.41-52.09h4.27c5.52 0 10 4.48 10 10z" fill="#0cc166"/><path d="m304.884 359.281c0-6.904-5.596-12.5-12.5-12.5h-11.315c-6.904 0-12.5 5.596-12.5 12.5 0 6.904 5.596 12.5 12.5 12.5h11.315c6.904 0 12.5-5.597 12.5-12.5z" fill="#79ff79"/></g></g></g><g><path d="m286.933 445.458h-61.867c-5.316 0-9.625-4.309-9.625-9.625 0-5.316 4.309-9.625 9.625-9.625h61.867c5.316 0 9.625 4.309 9.625 9.625.001 5.315-4.309 9.625-9.625 9.625z" fill="#706c64"/><path d="m255.619 426.207h-15.485c-5.316 0-9.625 4.309-9.625 9.625 0 5.316 4.309 9.625 9.625 9.625h15.485c5.316 0 9.625-4.309 9.625-9.625.001-5.316-4.309-9.625-9.625-9.625z" fill="#8f8b81"/></g></g></svg>