<svg id="Layer_2_copy" height="512" viewBox="0 0 512 512" width="512" xmlns="http://www.w3.org/2000/svg" xmlns:xlink="http://www.w3.org/1999/xlink" data-name="Layer 2 copy"><linearGradient id="linear-gradient" gradientUnits="userSpaceOnUse" x1="389.147" x2="-120.871" y1="-111.892" y2="398.125"><stop offset="0" stop-color="#f7941e"/><stop offset="1" stop-color="#ee2a7b"/></linearGradient><linearGradient id="linear-gradient-2" x1="440.638" x2="-69.38" xlink:href="#linear-gradient" y1="-60.402" y2="449.616"/><linearGradient id="linear-gradient-3" gradientTransform="matrix(.683 .73 -.73 .683 146.065 -57.793)" x1="390.123" x2="-119.895" xlink:href="#linear-gradient" y1="-110.917" y2="399.101"/><linearGradient id="linear-gradient-4" x1="602.52" x2="92.502" xlink:href="#linear-gradient" y1="101.48" y2="611.498"/><linearGradient id="linear-gradient-5" gradientTransform="matrix(.707 .707 -.707 .707 352.484 -146.268)" x1="603.099" x2="93.081" xlink:href="#linear-gradient" y1="102.059" y2="612.077"/><linearGradient id="linear-gradient-6" gradientTransform="matrix(.68 .734 -.734 .68 361.388 124.599)" x1="507.549" x2="-2.469" xlink:href="#linear-gradient" y1="6.51" y2="516.528"/><linearGradient id="linear-gradient-7" gradientTransform="matrix(.707 .707 -.707 .707 438.602 -134.825)" x1="672.579" x2="162.561" xlink:href="#linear-gradient" y1="171.539" y2="681.557"/><linearGradient id="linear-gradient-8" gradientTransform="matrix(.734 .679 -.679 .734 201.11 59.947)" x1="405.918" x2="-104.099" xlink:href="#linear-gradient" y1="-95.121" y2="414.897"/><path d="m85.657 157.657 109.407-109.407a8 8 0 0 0 0-11.314l-20.284-20.285h85.82v85.823l-20.281-20.285a8 8 0 0 0 -11.168-.142l-50.662 48.153 11.022 11.6 45.009-42.78 28.426 28.427a8 8 0 0 0 13.657-5.657v-113.139a8 8 0 0 0 -8-8h-113.136a8 8 0 0 0 -5.657 13.657l28.284 28.284-103.751 103.751z" fill="url(#linear-gradient)"/><path d="m343.08 195.548a24.025 24.025 0 0 0 5.515-.82c6.1-1.646 12.356-5.738 19.128-12.51l32.527-32.527a8 8 0 0 0 0-11.314l45.25-45.254a8 8 0 0 0 2.189-7.218l-7.848-39.466a8 8 0 0 0 -13.59-4.009l-60.039 61.92a23.995 23.995 0 0 0 -33.85.086l-50.912 50.912-11.327-11.327a23.971 23.971 0 0 0 -33.115-.788c-.094.086-.186.173-.275.263l-4.99 4.99c-14.718 5.575-132.013 48.782-203.72 38.54a8 8 0 0 0 -6.782 13.574l39.6 39.6-5.656 5.656a8 8 0 0 0 0 11.314l50.911 50.911-45.257 45.257a8 8 0 0 0 -2.188 7.227l11.313 56.568a8 8 0 0 0 14.562 2.776l15.1-23.33 112.533-112.537-11.313-11.314-113.138 113.136a7.985 7.985 0 0 0 -1.06 1.312l-4.857 7.507-6.611-33.058 42.227-42.225a8 8 0 0 0 11.313 0l39.6-39.6a8 8 0 0 0 0-11.314l-62.227-62.226a8 8 0 0 0 -11.313 0l-22.628 22.627-24.325-24.325c31 .611 69.722-5.238 115.482-17.441 15.941-4.251 30.425-8.671 42.365-12.559l-59.983 59.983 11.309 11.313 90.9-90.89a7.989 7.989 0 0 1 10.92.368l33.954 33.953-50.916 50.911 11.313 11.314 56.569-56.568 11.313-11.314 4.243 4.242c.486.486.974.937 1.461 1.368l-79.243 79.243-33.941-33.941 45.254-45.254-11.313-11.314-79.2 79.2 11.313 11.314 22.627-22.627 33.946 33.937-107.48 107.48a8.006 8.006 0 0 0 -1 1.22l-14.98 22.47-5.148-10.3-14.311 7.156 11.313 22.627a8 8 0 0 0 6.658 4.406c.167.011.333.016.5.016a8 8 0 0 0 6.655-3.562l22.188-33.281zm-242.643 27.682 50.912 50.912-28.284 28.284-50.913-50.911zm326.691-158.712 4.04 20.314-42.231 42.232-11.4-11.4zm-77.79 48.89a7.946 7.946 0 0 1 5.662 2.343l28.284 28.283-5.657 5.657-16.971-16.97a8 8 0 0 0 -4.525-2.263l-23.758-3.394 11.314-11.314a7.948 7.948 0 0 1 5.651-2.343zm-28.285 50.911a8 8 0 0 0 -5.657 2.343l-11.313 11.314-11.313-11.314 25.456-25.456 33 4.714 15.083 15.08-9.9 9.9c-4.674 4.674-8.706 7.492-11.984 8.377-2.085.563-4.473.622-7.815-2.721l-9.9-9.9a8 8 0 0 0 -5.656-2.338z" fill="url(#linear-gradient-2)"/><path d="m122.594 131.532h34.161v16h-34.161z" fill="url(#linear-gradient-3)" transform="matrix(.683 -.73 .73 .683 -57.644 146.123)"/><path d="m504 192h-113.137a8 8 0 0 0 -5.657 13.657l28.285 28.284-263.751 263.75 11.313 11.314 269.408-269.405a8 8 0 0 0 0-11.314l-20.285-20.286h85.824v85.823l-20.284-20.284a8 8 0 0 0 -5.657-2.343h-.026a8 8 0 0 0 -5.668 2.381l-206.059 208.8 11.389 11.238 200.405-203.067 28.247 28.246a8 8 0 0 0 13.653-5.657v-113.137a8 8 0 0 0 -8-8z" fill="url(#linear-gradient-4)"/><path d="m304.804 344.354h96v16h-96z" fill="url(#linear-gradient-5)" transform="matrix(.707 -.707 .707 .707 -145.818 352.67)"/><path d="m-.111 468h76.34v16h-76.34z" fill="url(#linear-gradient-6)" transform="matrix(.68 -.734 .734 .68 -336.999 180.439)"/><path d="m334.059 454.059h96v16h-96z" fill="url(#linear-gradient-7)" transform="matrix(.707 -.707 .707 .707 -214.82 405.465)"/><path d="m2.206 278.798h43.587v15.999h-43.587z" fill="url(#linear-gradient-8)" transform="matrix(.734 -.679 .679 .734 -188.349 92.539)"/></svg>