<?xml version="1.0" encoding="UTF-8"?>
<svg xmlns="http://www.w3.org/2000/svg" xmlns:xlink="http://www.w3.org/1999/xlink" viewBox="0 0 512 512" width="512" height="512"><defs><linearGradient id="linear-gradient" x1="68.022" y1="466.429" x2="443.978" y2="90.473" gradientUnits="userSpaceOnUse"><stop offset="0" stop-color="#41dfd0"/><stop offset="1" stop-color="#ee83ef"/></linearGradient></defs><g id="gradient"><path d="M488,368H464V132a52.059,52.059,0,0,0-52-52H100a52.059,52.059,0,0,0-52,52V368H24a8,8,0,0,0-8,8v26a30.034,30.034,0,0,0,30,30H466a30.034,30.034,0,0,0,30-30V376A8,8,0,0,0,488,368ZM64,132a36.04,36.04,0,0,1,36-36H412a36.04,36.04,0,0,1,36,36V368H432V152a7.946,7.946,0,0,0-1.562-4.734c-.015-.022-.021-.044-.038-.066l-24-32A8,8,0,0,0,400,112H112a8,8,0,0,0-6.4,3.2l-24,32c-.012.015-.013.031-.024.046A7.953,7.953,0,0,0,80,152V368H64Zm165.754-4-4,16h-28.81l8-16Zm77.3,0,8,16h-28.81l-4-16ZM368,176a16,16,0,0,1-32,0V160h32Zm-48,0a16,16,0,0,1-32,0V160h32Zm-48,0a16,16,0,0,1-32,0V160h32Zm-48,0a16,16,0,0,1-32,0V160h32Zm-48,0a16,16,0,0,1-32,0V160h32Zm-48,0a16,16,0,0,1-32,0V160h32Zm256-16h32v16a16,16,0,0,1-32,0Zm-4-16-12-16h28l12,16Zm-20,0H332.944l-8-16H348Zm-90.246,0H242.246l4-16h19.508Zm-90.7,0H152l12-16h23.056ZM132,144H104l12-16h28ZM96,203.7a31.916,31.916,0,0,0,40-6.563,31.934,31.934,0,0,0,48,0,31.934,31.934,0,0,0,48,0,31.934,31.934,0,0,0,48,0,31.934,31.934,0,0,0,48,0,31.934,31.934,0,0,0,48,0,31.916,31.916,0,0,0,40,6.563V368H296a8.005,8.005,0,0,0-4.438,1.344L269.578,384H242.422l-21.984-14.656A8.005,8.005,0,0,0,216,368H96ZM480,402a14.015,14.015,0,0,1-14,14H46a14.015,14.015,0,0,1-14-14V384H213.578l21.984,14.656A8.005,8.005,0,0,0,240,400h32a8.005,8.005,0,0,0,4.438-1.344L298.422,384H480ZM296,352a8,8,0,0,0,7.761-9.94l-5.352-21.407a21.539,21.539,0,0,1,1.63-14.843,37.708,37.708,0,0,0,3.764-12.964l4.619,2.309a8,8,0,0,0,10.733-3.577l16-32A8,8,0,0,0,332.8,249.6l-14.934-11.2a72.451,72.451,0,0,0-43.2-14.4H272a8,8,0,0,0-8,8v8a8,8,0,0,1-16,0v-8a8,8,0,0,0-8-8h-2.667a72.451,72.451,0,0,0-43.2,14.4L179.2,249.6a8,8,0,0,0-2.355,9.978l16,32a8,8,0,0,0,10.733,3.577l4.619-2.309a37.741,37.741,0,0,0,3.764,12.965,21.535,21.535,0,0,1,1.63,14.842l-5.352,21.407A8,8,0,0,0,216,352Zm-83.578-79.155-8.844,4.422-9.436-18.873,9.591-7.194A56.412,56.412,0,0,1,232,240.259a24,24,0,0,0,48,0A56.412,56.412,0,0,1,308.267,251.2l9.591,7.194-9.436,18.873-8.844-4.422A8,8,0,0,0,288,280v9.031a21.628,21.628,0,0,1-2.271,9.623,37.544,37.544,0,0,0-2.841,25.88L285.754,336H226.246l2.866-11.466a37.541,37.541,0,0,0-2.841-25.879A21.635,21.635,0,0,1,224,289.031V280a8,8,0,0,0-11.578-7.155Zm144,54.31a8,8,0,0,0,8.378-.755l32-24a8,8,0,0,0,0-12.8l-32-24A8,8,0,0,0,352,272v48A8,8,0,0,0,356.422,327.155ZM368,288l10.667,8L368,304ZM155.578,264.845a7.994,7.994,0,0,0-8.378.755l-32,24a8,8,0,0,0,0,12.8l32,24A8,8,0,0,0,160,320V272A8,8,0,0,0,155.578,264.845ZM144,304l-10.667-8L144,288Z" style="fill:url(#linear-gradient)"/></g></svg>
