<svg height="464pt" viewBox="0 -96 464.0641 464" width="464pt" xmlns="http://www.w3.org/2000/svg" xmlns:xlink="http://www.w3.org/1999/xlink"><linearGradient id="a" gradientUnits="userSpaceOnUse" x1="142.455085" x2="409.735085" y1="257.67789" y2="-9.61011"><stop offset="0" stop-color="#41dfd0"/><stop offset="1" stop-color="#ee83ef"/></linearGradient><path d="m349.023438 169.757812c-1.03125-.820312-2.25-1.371093-3.542969-1.601562l-26.488281-4.726562 103.679687-150.871094c2.3125-3.375 1.710937-7.949219-1.402344-10.609375-3.109375-2.65625-7.722656-2.539063-10.695312.273437l-144.894531 137.289063-51.679688-56.851563c0-.046875-.105469-.054687-.144531-.101562-.675781-.695313-1.472657-1.261719-2.351563-1.671875-.367187-.160157-.746094-.285157-1.136718-.375-.734376-.269531-1.507813-.425781-2.289063-.464844-.070313 0-.128906 0-.191406 0s-.121094 0-.183594 0c-.324219.066406-.640625.148437-.953125.253906-.726562.09375-1.4375.292969-2.109375.585938-.347656.195312-.675781.417969-.984375.664062-.59375.375-1.132812.832031-1.601562 1.351563-.113282.128906-.289063.191406-.390626.328125l-28.992187 38.632812-34.921875-6.824219-51.199219-71.648437c-.0625-.097656-.175781-.152344-.246093-.25-.183594-.277344-.382813-.546875-.601563-.796875l-24-24c-3.125-3.125-8.1875-3.125-11.3125 0l-48 48c-2.3242188 2.285156-3.03125 5.757812-1.78125 8.769531 1.253906 3.011719 4.207031 4.964844 7.46875 4.933594.746094-.003906 1.484375-.105469 2.199219-.304687l49.410156-14.097657 17.304688 37.496094-35.378907-6.917969c-3.125-.613281-6.316406.691406-8.121093 3.316406-1.808594 2.621094-1.882813 6.070313-.195313 8.769532l40 64c1.027344 1.648437 2.625 2.867187 4.484375 3.425781l37.96875 11.390625 37.066406 80.296875c.054688.128906.160156.214844.222656.34375.199219.371094.429688.722656.6875 1.054687.402344.605469.914063 1.121094 1.511719 1.53125.253907.214844.519531.410157.800781.589844.089844.054688.160157.136719.246094.183594.265625.136719.554688.191406.800782.304688.664062.316406 1.386718.492187 2.121093.519531.289063.050781.578125.082031.871094.097656h.25c.160156 0 .3125-.039063.472656-.058594.332031-.011719.660157-.046875.992188-.101562.117187 0 .214843-.105469.324219-.136719.617187-.167969 1.210937-.410156 1.769531-.71875.167969-.097656.359375-.144531.519531-.25l.113281-.054688 42.542969-28.359374 27.359375 27.359374.074219.046876c.695312.675781 1.507812 1.21875 2.398437 1.601562h.097657c.960937.402344 1.988281.617188 3.03125.632812h.054687c.910156-.023437 1.8125-.199218 2.664063-.523437.183593-.0625.367187-.125.542968-.207031.851563-.363282 1.625-.878906 2.289063-1.519532.050781-.039062.105469-.046874.152343-.097656.046876-.046875.105469-.191406.183594-.269531.273438-.265625.523438-.554687.753906-.855469l27.816407-40.425781 179.695312 43.710937c3.65625.890626 7.441407-.890624 9.085938-4.277343s.703125-7.460938-2.253907-9.785157zm-284.25-123-3.628907 1.808594-25.601562 7.3125 20.535156-20.519531 10.496094 10.496094zm20.488281 114.488282-28.628907-45.808594 28.628907 5.601562 21.546875 46.671876zm66.816406 66.351562-15.855469-34.351562 15.855469 4.75zm0-46.3125-24.800781-7.4375-52.6875-114.113281 2.953125-1.472656 74.535156 104.34375zm5.242187-38.863281-6.042968-8.433594 10.777344 2.113281zm209.230469-76.425781-64.871093 94.371094-22.96875-4.097657h-.046876l-6.152343-1.085937zm-150.472656 42.738281 40.480469 44.496094-.480469 2.015625-40 11.871094zm-48 51.3125v-5.320313l14.3125-18.984374c.207031-.28125.394531-.574219.558594-.878907l17.128906-22.816406v59.808594l-32 9.46875zm32 67.71875-32 21.335937v-46.878906l32 7.785156zm35.359375 20.328125-19.359375-19.359375v-14.832031l25.601563 6.222656zm21.441406-22.609375.351563-1.597656.625.152343zm15.902344-14.238281-.222656-.054688-81.757813-19.945312 72.535157-21.496094 40.613281 7.257812 36.753906 6.527344 81.433594 64zm0 0" fill="url(#a)"/></svg>