<svg id="Capa_1" enable-background="new 0 0 510 510" height="512" viewBox="0 0 510 510" width="512" xmlns="http://www.w3.org/2000/svg" xmlns:xlink="http://www.w3.org/1999/xlink"><linearGradient id="lg1"><stop offset="0" stop-color="#d4f7ff"/><stop offset="1" stop-color="#a2e3e9"/></linearGradient><linearGradient id="SVGID_1_" gradientUnits="userSpaceOnUse" x1="438.442" x2="448.215" xlink:href="#lg1" y1="174.339" y2="218.762"/><linearGradient id="lg2"><stop offset="0" stop-color="#a2e3e9" stop-opacity="0"/><stop offset="1" stop-color="#518cd2"/></linearGradient><linearGradient id="SVGID_2_" gradientUnits="userSpaceOnUse" x1="493.618" x2="437.618" xlink:href="#lg2" y1="200.708" y2="179.708"/><linearGradient id="SVGID_3_" gradientUnits="userSpaceOnUse" x1="249.61" x2="261.11" xlink:href="#lg1" y1="222.886" y2="330.886"/><linearGradient id="SVGID_4_" gradientUnits="userSpaceOnUse" x1="256.21" x2="254.209" xlink:href="#lg2" y1="356.848" y2="118.848"/><linearGradient id="lg3"><stop offset="0" stop-color="#4f4a72"/><stop offset="1" stop-color="#3b395f"/></linearGradient><linearGradient id="SVGID_5_" gradientUnits="userSpaceOnUse" x1="59.046" x2="67.573" xlink:href="#lg3" y1="253.3" y2="285.401"/><linearGradient id="SVGID_6_" gradientUnits="userSpaceOnUse" x1="134.786" x2="110.286" xlink:href="#lg1" y1="265.623" y2="260.623"/><linearGradient id="SVGID_7_" gradientUnits="userSpaceOnUse" x1="304.082" x2="279.582" xlink:href="#lg1" y1="265.623" y2="260.623"/><linearGradient id="SVGID_8_" gradientUnits="userSpaceOnUse" x1="485.216" x2="411.216" xlink:href="#lg2" y1="282.218" y2="211.218"/><linearGradient id="SVGID_9_" gradientUnits="userSpaceOnUse" x1="445.534" x2="451.385" xlink:href="#lg1" y1="242.161" y2="264.189"/><linearGradient id="SVGID_10_" gradientUnits="userSpaceOnUse" x1="451.427" x2="348.427" xlink:href="#lg2" y1="244.998" y2="238.498"/><linearGradient id="SVGID_11_" gradientUnits="userSpaceOnUse" x1="154.458" x2="156.034" xlink:href="#lg3" y1="247.05" y2="261.849"/><linearGradient id="SVGID_12_" gradientUnits="userSpaceOnUse" x1="181.709" x2="183.285" xlink:href="#lg3" y1="247.05" y2="261.849"/><linearGradient id="SVGID_13_" gradientUnits="userSpaceOnUse" x1="208.96" x2="210.536" xlink:href="#lg3" y1="247.05" y2="261.849"/><linearGradient id="SVGID_14_" gradientUnits="userSpaceOnUse" x1="236.211" x2="237.786" xlink:href="#lg3" y1="247.05" y2="261.849"/><linearGradient id="SVGID_15_" gradientUnits="userSpaceOnUse" x1="263.461" x2="265.037" xlink:href="#lg3" y1="247.05" y2="261.849"/><linearGradient id="SVGID_16_" gradientUnits="userSpaceOnUse" x1="326.965" x2="328.541" xlink:href="#lg3" y1="247.05" y2="261.849"/><linearGradient id="SVGID_17_" gradientUnits="userSpaceOnUse" x1="353.965" x2="355.541" xlink:href="#lg3" y1="247.05" y2="261.849"/><linearGradient id="SVGID_18_" gradientUnits="userSpaceOnUse" x1="380.965" x2="382.541" xlink:href="#lg3" y1="247.05" y2="261.849"/><linearGradient id="SVGID_19_" gradientUnits="userSpaceOnUse" x1="280.241" x2="261.574" xlink:href="#lg2" y1="382.604" y2="246.605"/><linearGradient id="SVGID_20_" gradientUnits="userSpaceOnUse" x1="264.252" x2="264.252" xlink:href="#lg1" y1="280.743" y2="314.757"/><linearGradient id="SVGID_21_" gradientUnits="userSpaceOnUse" x1="267.674" x2="261.674" xlink:href="#lg2" y1="331.422" y2="267.422"/><linearGradient id="lg4"><stop offset="0" stop-color="#a34a9e"/><stop offset=".1551" stop-color="#9b489a"/><stop offset=".4019" stop-color="#84438f"/><stop offset=".7073" stop-color="#5e3b7d"/><stop offset="1" stop-color="#343168"/></linearGradient><linearGradient id="SVGID_22_" gradientUnits="userSpaceOnUse" x1="215.306" x2="220.287" xlink:href="#lg4" y1="304.581" y2="335.091"/><linearGradient id="lg5"><stop offset="0" stop-color="#3fa9f5"/><stop offset="1" stop-color="#666ad6"/></linearGradient><linearGradient id="SVGID_23_" gradientUnits="userSpaceOnUse" x1="206.328" x2="212.434" xlink:href="#lg5" y1="303.298" y2="340.698"/><linearGradient id="SVGID_24_" gradientUnits="userSpaceOnUse" x1="216.054" x2="221.906" xlink:href="#lg3" y1="303.181" y2="339.025"/><linearGradient id="lg6"><stop offset="0" stop-color="#ffe548"/><stop offset=".1758" stop-color="#ffde50"/><stop offset=".4446" stop-color="#ffca65"/><stop offset=".7709" stop-color="#ffaa87"/><stop offset="1" stop-color="#ff90a4"/></linearGradient><linearGradient id="SVGID_25_" gradientUnits="userSpaceOnUse" x1="183.877" x2="198.727" xlink:href="#lg6" y1="311.124" y2="321.131"/><linearGradient id="SVGID_26_" gradientUnits="userSpaceOnUse" x1="191.049" x2="199.282" xlink:href="#lg1" y1="315.989" y2="320.508"/><linearGradient id="SVGID_27_" gradientUnits="userSpaceOnUse" x1="270.324" x2="276.08" xlink:href="#lg4" y1="306.104" y2="341.357"/><linearGradient id="SVGID_28_" gradientUnits="userSpaceOnUse" x1="259.951" x2="267.006" xlink:href="#lg5" y1="304.621" y2="347.836"/><linearGradient id="SVGID_29_" gradientUnits="userSpaceOnUse" x1="271.188" x2="277.95" xlink:href="#lg3" y1="304.486" y2="345.904"/><linearGradient id="SVGID_30_" gradientUnits="userSpaceOnUse" x1="234.009" x2="251.168" xlink:href="#lg6" y1="313.664" y2="325.228"/><linearGradient id="SVGID_31_" gradientUnits="userSpaceOnUse" x1="242.296" x2="251.808" xlink:href="#lg1" y1="319.285" y2="324.508"/><path d="m459.994 160.689-17.389 18.455c-3.478 3.691-8.324 5.783-13.395 5.783-5.071 0-9.917 2.092-13.395 5.783l-36.729 38.98h15.891 33.573 45.427l33.004-59.733c2.918-5.282-.902-11.758-6.937-11.758h-34.284c-2.182 0-4.269.901-5.766 2.49z" fill="url(#SVGID_1_)"/><path d="m500.046 158.199h-24.331c6.035 0 9.855 6.476 6.937 11.758l-33.004 59.733h24.33l33.004-59.733c2.919-5.282-.902-11.758-6.936-11.758z" fill="url(#SVGID_2_)"/><path d="m494.892 223.578h-387.22c-25.505 0-49.76 11.046-66.502 30.286l-6.441 7.402c-7.407 8.512-15.482 16.42-24.148 23.648-14.204 11.847-14.09 33.706.238 45.404 12.853 10.494 28.783 16.502 45.365 17.111l110.467 4.055c57.587 2.114 115.073-6.358 169.601-24.996l119.311-40.78c20.738-7.088 38.76-20.45 51.568-38.235 7.183-9.976.055-23.895-12.239-23.895z" fill="url(#SVGID_3_)"/><path d="m503.816 226.47c-7.154 4.048-14.693 7.46-22.549 10.145l-150.66 51.495c-68.855 23.535-141.445 34.233-214.163 31.564l-115.366-4.235c1.558 5.615 4.806 10.85 9.741 14.879 12.853 10.494 28.783 16.502 45.365 17.111l110.467 4.055c57.587 2.114 115.073-6.358 169.601-24.996l119.311-40.78c20.738-7.088 38.76-20.45 51.567-38.235 5.169-7.178 2.928-16.396-3.314-21.003z" fill="url(#SVGID_4_)"/><path d="m41.17 253.865-6.441 7.402c-5.216 5.994-10.769 11.681-16.62 17.049h33.784c20.658 0 40.139-9.619 52.698-26.022 2.213-2.89.152-7.064-3.488-7.064h-51.293c-3.056 2.659-5.946 5.539-8.64 8.635z" fill="url(#SVGID_5_)"/><path d="m129.306 282.227h-7.612c-3.697 0-6.694-2.997-6.694-6.694v-23.609c0-3.697 2.997-6.694 6.694-6.694h7.612c3.697 0 6.694 2.997 6.694 6.694v23.609c0 3.697-2.997 6.694-6.694 6.694z" fill="url(#SVGID_6_)"/><path d="m298.602 282.227h-7.612c-3.697 0-6.694-2.997-6.694-6.694v-23.609c0-3.697 2.997-6.694 6.694-6.694h7.612c3.697 0 6.694 2.997 6.694 6.694v23.609c0 3.697-2.997 6.694-6.694 6.694z" fill="url(#SVGID_7_)"/><path d="m507.13 247.473c.35-.486.656-.984.939-1.486l-14.518-14.519c-.476-.783-1.32-1.351-2.441-1.351h-25.112c-1.792 0-3.574.273-5.284.809l-59.715 18.734c-3.747 1.175-4.087 5.916-1.351 7.91l35.213 35.213 20.703-7.076c20.737-7.088 38.758-20.449 51.566-38.234z" fill="url(#SVGID_8_)"/><path d="m491.11 230.117h-25.112c-1.792 0-3.574.273-5.284.809l-59.715 18.734c-4.426 1.389-4.117 7.77.429 8.697 9.923 2.024 25.716 3.265 48.773-.146 2.985-.442 5.859-1.466 8.467-2.986l33.891-19.747c2.536-1.478 1.487-5.361-1.449-5.361z" fill="url(#SVGID_9_)"/><path d="m402.114 256.573c-.865.272-1.581.696-2.181 1.206.432.263.93.462 1.494.577 9.923 2.024 25.716 3.265 48.774-.146 2.985-.442 5.859-1.467 8.466-2.986l33.891-19.747c2.537-1.478 1.488-5.361-1.448-5.361h-1.004c-2.426 0-4.839.37-7.154 1.096z" fill="url(#SVGID_10_)"/><path d="m157.786 263.728h-5.074c-3.707 0-6.712-3.005-6.712-6.712v-5.074c0-3.707 3.005-6.712 6.712-6.712h5.074c3.707 0 6.712 3.005 6.712 6.712v5.074c.001 3.707-3.005 6.712-6.712 6.712z" fill="url(#SVGID_11_)"/><path d="m185.037 263.728h-5.074c-3.707 0-6.712-3.005-6.712-6.712v-5.074c0-3.707 3.005-6.712 6.712-6.712h5.074c3.707 0 6.712 3.005 6.712 6.712v5.074c0 3.707-3.005 6.712-6.712 6.712z" fill="url(#SVGID_12_)"/><path d="m212.288 263.728h-5.074c-3.707 0-6.712-3.005-6.712-6.712v-5.074c0-3.707 3.005-6.712 6.712-6.712h5.074c3.707 0 6.712 3.005 6.712 6.712v5.074c0 3.707-3.005 6.712-6.712 6.712z" fill="url(#SVGID_13_)"/><path d="m239.539 263.728h-5.074c-3.707 0-6.712-3.005-6.712-6.712v-5.074c0-3.707 3.005-6.712 6.712-6.712h5.074c3.707 0 6.712 3.005 6.712 6.712v5.074c0 3.707-3.005 6.712-6.712 6.712z" fill="url(#SVGID_14_)"/><path d="m266.789 263.728h-5.074c-3.707 0-6.712-3.005-6.712-6.712v-5.074c0-3.707 3.005-6.712 6.712-6.712h5.074c3.707 0 6.712 3.005 6.712 6.712v5.074c0 3.707-3.005 6.712-6.712 6.712z" fill="url(#SVGID_15_)"/><path d="m330.293 263.728h-5.074c-3.707 0-6.712-3.005-6.712-6.712v-5.074c0-3.707 3.005-6.712 6.712-6.712h5.074c3.707 0 6.712 3.005 6.712 6.712v5.074c0 3.707-3.005 6.712-6.712 6.712z" fill="url(#SVGID_16_)"/><path d="m357.293 263.728h-5.074c-3.707 0-6.712-3.005-6.712-6.712v-5.074c0-3.707 3.005-6.712 6.712-6.712h5.074c3.707 0 6.712 3.005 6.712 6.712v5.074c0 3.707-3.005 6.712-6.712 6.712z" fill="url(#SVGID_17_)"/><path d="m384.293 263.728h-5.074c-3.707 0-6.712-3.005-6.712-6.712v-5.074c0-3.707 3.005-6.712 6.712-6.712h5.074c3.707 0 6.712 3.005 6.712 6.712v5.074c0 3.707-3.005 6.712-6.712 6.712z" fill="url(#SVGID_18_)"/><path d="m336.251 326.488 65.218-22.291s-7.498-7.616-7.498-7.693c0-.505-.617-1.003-1.775-1.491.028-.076.056-.152.056-.228 0-6.604-104.308-11.957-175-11.957s-81 5.353-81 11.957c0 1.604.612 3.134 2.546 4.531l52.421 52.421c49.318-.763 98.263-9.263 145.032-25.249z" fill="url(#SVGID_19_)"/><path d="m392.252 294.785c0 6.604-104.308 11.957-175 11.957s-81-5.353-81-11.957 10.308-11.957 81-11.957c70.693 0 175 5.353 175 11.957z" fill="url(#SVGID_20_)"/><path d="m217.252 306.742c70.692 0 175-5.353 175-11.957h-256c0 6.604 10.308 11.957 81 11.957z" fill="url(#SVGID_21_)"/><path d="m242.679 316.422c0 9.748-23.326 17.651-33.075 17.651-9.748 0-17.65-7.902-17.65-17.651s7.902-17.65 17.65-17.65 33.075 7.902 33.075 17.65z" fill="url(#SVGID_22_)"/><path d="m228.94 304.311c0-2.893-1.854-5.477-4.607-6.363-6.233-2.005-12.343-3.163-16.47-3.163-11.95 0-21.637 9.687-21.637 21.637s9.687 21.637 21.637 21.637c4.127 0 10.237-1.157 16.47-3.163 2.754-.886 4.607-3.47 4.607-6.363z" fill="url(#SVGID_23_)"/><path d="m217.383 302.002v28.841c0 2.719-1.379 5.204-3.571 6.651 2.536-.418 5.335-1.057 8.213-1.892.996-1.345 1.572-3.004 1.572-4.759v-28.841c0-1.755-.576-3.413-1.572-4.759-2.879-.835-5.677-1.474-8.213-1.892 2.193 1.447 3.571 3.932 3.571 6.651z" fill="url(#SVGID_24_)"/><ellipse cx="191.74" cy="316.422" fill="url(#SVGID_25_)" rx="7.102" ry="15.711"/><path d="m191.487 299.205c-.007 0-.014 0-.021 0-.833.005-1.238 1.048-.662 1.65 2.634 2.759 4.457 8.691 4.457 15.567s-1.823 12.809-4.457 15.568c-.575.602-.171 1.645.662 1.65h.021c4.299 0 7.783-7.708 7.783-17.217 0-9.51-3.484-17.218-7.783-17.218z" fill="url(#SVGID_26_)"/><path d="m301.953 319.786c0 11.264-26.953 20.395-38.217 20.395s-20.395-9.131-20.395-20.395 9.131-20.395 20.395-20.395 38.217 9.132 38.217 20.395z" fill="url(#SVGID_27_)"/><path d="m286.078 305.792c0-3.342-2.142-6.329-5.324-7.353-7.202-2.317-14.263-3.654-19.031-3.654-13.808 0-25.001 11.193-25.001 25.001s11.193 25.001 25.001 25.001c4.768 0 11.829-1.337 19.031-3.654 3.182-1.024 5.324-4.01 5.324-7.353z" fill="url(#SVGID_28_)"/><path d="m272.725 303.124v33.325c0 3.141-1.593 6.013-4.126 7.686 2.931-.483 6.164-1.222 9.49-2.187 1.151-1.555 1.816-3.471 1.816-5.499v-33.325c0-2.028-.665-3.944-1.816-5.499-3.326-.965-6.56-1.703-9.49-2.187 2.533 1.673 4.126 4.545 4.126 7.686z" fill="url(#SVGID_29_)"/><ellipse cx="243.094" cy="319.786" fill="url(#SVGID_30_)" rx="8.206" ry="18.154"/><path d="m242.802 299.892c-.008 0-.016 0-.024 0-.962.006-1.43 1.211-.765 1.907 3.044 3.188 5.15 10.043 5.15 17.988s-2.106 14.8-5.15 17.988c-.665.696-.197 1.901.765 1.907h.024c4.967 0 8.993-8.907 8.993-19.895s-4.026-19.895-8.993-19.895z" fill="url(#SVGID_31_)"/></svg>